<svg id="Layer_1" data-name="Layer 1" xmlns="http://www.w3.org/2000/svg" viewBox="0 0 169 169"><defs><style>.cls-1{fill:#ada795;}.cls-2{fill:#474747;}</style></defs><title>Artboard 1</title><rect class="cls-1" width="169" height="169"/><path class="cls-2" d="M145.35,71.35l-9.13-1.54A52,52,0,0,0,132.56,61l5.37-7.52a8,8,0,0,0-.87-10.35L129,35a8,8,0,0,0-5.67-2.36,7.88,7.88,0,0,0-4.65,1.49L111.1,39.5a50.67,50.67,0,0,0-9.18-3.78l-1.52-9A8,8,0,0,0,92.47,20H81a8,8,0,0,0-7.93,6.71l-1.58,9.23a50.13,50.13,0,0,0-8.82,3.72l-7.47-5.38a8,8,0,0,0-4.67-1.49,7.94,7.94,0,0,0-5.68,2.36l-8.12,8.1a8,8,0,0,0-.87,10.34l5.44,7.63a50.92,50.92,0,0,0-3.62,8.88l-9,1.53A8,8,0,0,0,22,79.56V91a8,8,0,0,0,6.71,7.93l9.23,1.57a50.54,50.54,0,0,0,3.72,8.83l-5.35,7.44a8,8,0,0,0,.87,10.35l8.09,8.09A8,8,0,0,0,51,137.56a7.85,7.85,0,0,0,4.64-1.49l7.63-5.43a52.23,52.23,0,0,0,8.59,3.53l1.52,9.12A8,8,0,0,0,81.26,150H92.72a8,8,0,0,0,7.93-6.71l1.54-9.12a52,52,0,0,0,8.86-3.67l7.52,5.38a8,8,0,0,0,4.67,1.49h0a8,8,0,0,0,5.68-2.36l8.09-8.09a8,8,0,0,0,.87-10.35L132.5,109a51.17,51.17,0,0,0,3.67-8.85l9.12-1.52A8,8,0,0,0,152,90.72V79.28A7.94,7.94,0,0,0,145.35,71.35Zm-.63,19.37a.69.69,0,0,1-.6.7l-11.4,1.9A3.65,3.65,0,0,0,129.79,96a43.77,43.77,0,0,1-4.73,11.38,3.68,3.68,0,0,0,.16,4l6.71,9.45a.75.75,0,0,1-.08.93l-8.09,8.09a.7.7,0,0,1-.93.08l-9.42-6.71a3.68,3.68,0,0,0-4-.16A43.77,43.77,0,0,1,98,127.79a3.61,3.61,0,0,0-2.69,2.93l-1.93,11.4a.69.69,0,0,1-.7.6H81.28a.69.69,0,0,1-.7-.6l-1.9-11.4A3.65,3.65,0,0,0,76,127.79a45.39,45.39,0,0,1-11.14-4.57,3.81,3.81,0,0,0-1.84-.49,3.57,3.57,0,0,0-2.12.68l-9.51,6.77a.79.79,0,0,1-.4.13.74.74,0,0,1-.52-.22L42.37,122a.72.72,0,0,1-.08-.92L49,111.71a3.73,3.73,0,0,0,.16-4,43,43,0,0,1-4.78-11.35,3.71,3.71,0,0,0-2.93-2.69l-11.49-2a.7.7,0,0,1-.6-.7V79.56a.7.7,0,0,1,.6-.71L41.25,77a3.68,3.68,0,0,0,3-2.72,43.55,43.55,0,0,1,4.65-11.4,3.64,3.64,0,0,0-.19-4l-6.76-9.5a.74.74,0,0,1,.08-.93l8.09-8.09a.7.7,0,0,1,.52-.22.67.67,0,0,1,.4.14l9.37,6.68a3.71,3.71,0,0,0,4,.16,43,43,0,0,1,11.35-4.78,3.71,3.71,0,0,0,2.69-2.93l2-11.49a.69.69,0,0,1,.7-.59H92.53a.69.69,0,0,1,.7.59l1.9,11.33a3.7,3.7,0,0,0,2.72,3A43.88,43.88,0,0,1,109.5,47a3.66,3.66,0,0,0,4-.17l9.37-6.73a.84.84,0,0,1,.41-.14.72.72,0,0,1,.51.22l8.1,8.09a.75.75,0,0,1,.08.93l-6.71,9.42a3.66,3.66,0,0,0-.16,4A43.4,43.4,0,0,1,129.81,74a3.62,3.62,0,0,0,2.94,2.69l11.4,1.93a.7.7,0,0,1,.6.7V90.72Z"/><path class="cls-2" d="M87,56.93A28.06,28.06,0,1,0,115.07,85,28.07,28.07,0,0,0,87,56.93Zm0,48.78A20.72,20.72,0,1,1,107.73,85,20.74,20.74,0,0,1,87,105.71Z"/></svg>
